<svg preserveAspectRatio="none" overflow="visible" style="display: block;" width="60" height="60" viewBox="0 0 60 60" fill="none" xmlns="http://www.w3.org/2000/svg">
<g id="Group 1693">
<circle id="Ellipse 744" cx="30" cy="30" r="30" fill="#FFD561"/>
<path id="Subtract" d="M30 13C39.3887 13.0001 46.9999 20.6113 47 30C46.9999 39.3887 39.3887 46.9999 30 47C20.6113 46.9999 13.0001 39.3887 13 30C13.0001 20.6113 20.6113 13.0001 30 13ZM24.1094 31.7012C23.502 31.7013 22.9402 32.0256 22.6367 32.5518C22.3338 33.0779 22.3337 33.7273 22.6377 34.2529C24.1049 36.7884 26.8523 38.5008 30 38.501C33.1475 38.5008 35.8941 36.7882 37.3613 34.2529C37.6654 33.7273 37.6654 33.0779 37.3623 32.5518C37.0587 32.0257 36.4971 31.7013 35.8896 31.7012H24.1094ZM23.96 22.5303C23.1203 22.1105 22.0986 22.4505 21.6787 23.29C21.2593 24.1297 21.6 25.1515 22.4395 25.5713L22.7988 25.751L22.4395 25.9307C21.6002 26.3507 21.2591 27.3714 21.6787 28.2109C22.0986 29.0503 23.1204 29.391 23.96 28.9717L27.3604 27.2715C27.9359 26.9836 28.2995 26.3945 28.2998 25.751C28.2998 25.1072 27.936 24.5185 27.3604 24.2305L23.96 22.5303ZM38.3203 23.29C37.9003 22.4505 36.8787 22.1104 36.0391 22.5303L32.6387 24.2305C32.0634 24.5186 31.6992 25.1075 31.6992 25.751C31.6995 26.3944 32.0633 26.9835 32.6387 27.2715L36.0391 28.9717C36.8786 29.3914 37.9002 29.0502 38.3203 28.2109C38.74 27.3712 38.3992 26.3505 37.5596 25.9307L37.2002 25.751L37.5596 25.5713C38.3992 25.1515 38.74 24.1298 38.3203 23.29Z" fill="#292929"/>
</g>
</svg>
