<svg width="20" height="20" viewBox="0 0 20 20" fill="none" xmlns="http://www.w3.org/2000/svg">
<path d="M10 16.6667H17.5M13.6467 3.01836C13.9784 2.68661 14.4284 2.50024 14.8975 2.50024C15.3667 2.50024 15.8166 2.68661 16.1484 3.01836C16.4801 3.3501 16.6665 3.80004 16.6665 4.26919C16.6665 4.73834 16.4801 5.18828 16.1484 5.52002L6.14002 15.5292C5.94177 15.7274 5.69671 15.8725 5.42752 15.9509L3.03419 16.6492C2.96248 16.6701 2.88647 16.6714 2.81411 16.6528C2.74175 16.6343 2.67571 16.5966 2.62289 16.5438C2.57008 16.491 2.53243 16.425 2.51389 16.3526C2.49535 16.2802 2.49661 16.2042 2.51752 16.1325L3.21585 13.7392C3.29437 13.4703 3.43939 13.2255 3.63752 13.0275L13.6467 3.01836Z" stroke="#999999" stroke-width="1.5" stroke-linecap="round" stroke-linejoin="round"/>
</svg>
