<svg width="17" height="17" viewBox="0 0 17 17" fill="none" xmlns="http://www.w3.org/2000/svg">
<path d="M12.9983 2.05243H3.4205C2.66483 2.05243 2.05225 2.66502 2.05225 3.42068V12.9984C2.05225 13.7541 2.66483 14.3667 3.4205 14.3667H12.9983C13.7539 14.3667 14.3665 13.7541 14.3665 12.9984V3.42068C14.3665 2.66502 13.7539 2.05243 12.9983 2.05243Z" stroke="#045E96" stroke-width="1.36825" stroke-linecap="round" stroke-linejoin="round"/>
<path d="M6.15707 7.52544C6.91274 7.52544 7.52532 6.91286 7.52532 6.15719C7.52532 5.40153 6.91274 4.78894 6.15707 4.78894C5.40141 4.78894 4.78882 5.40153 4.78882 6.15719C4.78882 6.91286 5.40141 7.52544 6.15707 7.52544Z" stroke="#045E96" stroke-width="1.36825" stroke-linecap="round" stroke-linejoin="round"/>
<path d="M14.3666 10.2619L12.2554 8.15073C11.9988 7.89422 11.6509 7.75012 11.2881 7.75012C10.9252 7.75012 10.5773 7.89422 10.3207 8.15073L4.10474 14.3667" stroke="#045E96" stroke-width="1.36825" stroke-linecap="round" stroke-linejoin="round"/>
</svg>
