<svg width="68" height="68" viewBox="0 0 68 68" fill="none" xmlns="http://www.w3.org/2000/svg">
<path d="M55.9185 39.6832C52.6785 51.7751 40.5559 59.0331 28.8418 55.8943C17.1278 52.7555 10.2583 40.4086 13.4983 28.3167C16.7383 16.2248 28.8609 8.9669 40.575 12.1057C52.289 15.2444 59.1585 27.5913 55.9185 39.6832Z" fill="#A56402"/>
<path fill-rule="evenodd" clip-rule="evenodd" d="M57.2869 40.0499C53.8554 52.8562 40.9856 60.6149 28.4752 57.2627C15.9648 53.9106 8.69842 40.7565 12.1299 27.9501C15.5613 15.1437 28.4312 7.38512 40.9416 10.7373C53.452 14.0894 60.7184 27.2435 57.2869 40.0499ZM28.8418 55.8943C40.5558 59.0331 52.6785 51.7751 55.9185 39.6832C59.1585 27.5913 52.289 15.2444 40.575 12.1057C28.8609 8.9669 16.7383 16.2249 13.4983 28.3168C10.2583 40.4086 17.1278 52.7555 28.8418 55.8943Z" fill="#5B3303"/>
<path d="M54.5019 38.2665C51.2618 50.3584 39.1392 57.6164 27.4252 54.4776C15.7111 51.3388 8.8416 38.992 12.0816 26.9001C15.3216 14.8082 27.4443 7.55021 39.1583 10.689C50.8723 13.8277 57.7419 26.1746 54.5019 38.2665Z" fill="#FFB423"/>
<path fill-rule="evenodd" clip-rule="evenodd" d="M55.8702 38.6332C52.4388 51.4396 39.5689 59.1982 27.0585 55.846C14.5481 52.4939 7.28176 39.3398 10.7132 26.5334C14.1447 13.727 27.0146 5.96844 39.525 9.32059C52.0354 12.6727 59.3017 25.8268 55.8702 38.6332ZM27.4252 54.4776C39.1392 57.6164 51.2618 50.3584 54.5019 38.2665C57.7419 26.1746 50.8723 13.8277 39.1583 10.689C27.4443 7.55022 15.3216 14.8082 12.0816 26.9001C8.8416 38.992 15.7111 51.3389 27.4252 54.4776Z" fill="#5B3303"/>
<path d="M50.3967 37.1666C47.7641 46.9912 37.9719 52.9037 28.5251 50.3725C19.0783 47.8412 13.5543 37.8247 16.1868 28.0001C18.8193 18.1754 28.6115 12.2629 38.0583 14.7942C47.5051 17.3255 53.0292 27.3419 50.3967 37.1666Z" fill="#FFCF23"/>
<path fill-rule="evenodd" clip-rule="evenodd" d="M51.765 37.5332C48.9437 48.0625 38.4111 54.488 28.1585 51.7408C17.9058 48.9936 11.9971 38.1627 14.8184 27.6334C17.6397 17.104 28.1723 10.6786 38.425 13.4257C48.6776 16.1729 54.5864 27.0039 51.765 37.5332ZM28.5251 50.3724C37.9719 52.9037 47.7641 46.9912 50.3967 37.1665C53.0292 27.3419 47.5051 17.3254 38.0583 14.7941C28.6115 12.2629 18.8193 18.1754 16.1868 28C13.5543 37.8247 19.0783 47.8411 28.5251 50.3724Z" fill="#DF8D12"/>
<path fill-rule="evenodd" clip-rule="evenodd" d="M46.4412 19.9704C44.4951 18.236 42.1413 16.9253 39.475 16.2108C30.0282 13.6796 20.236 19.5921 17.6035 29.4167C15.9047 35.7565 17.6024 42.1762 21.5589 46.6129C16.6098 42.2023 14.2973 35.0518 16.1868 28.0001C18.8193 18.1754 28.6115 12.2629 38.0583 14.7942C41.4091 15.692 44.2664 17.5316 46.4412 19.9704Z" fill="#FFDD65"/>
<path d="M45.7465 40.4684C45.977 40.9739 45.7542 41.5705 45.2487 41.801C44.7433 42.0316 44.1467 41.8087 43.9161 41.3033C43.6856 40.7979 43.9084 40.2012 44.4139 39.9707C44.9193 39.7401 45.5159 39.963 45.7465 40.4684Z" fill="#EEBE14"/>
<path d="M49.7979 36.4092C50.0285 36.9147 49.8056 37.5113 49.3002 37.7418C48.7948 37.9724 48.1981 37.7495 47.9676 37.2441C47.737 36.7387 47.9599 36.142 48.4653 35.9115C48.9708 35.6809 49.5674 35.9038 49.7979 36.4092Z" fill="#EEBE14"/>
<path d="M44.8932 36.0009C45.1238 36.5063 44.9009 37.103 44.3955 37.3335C43.89 37.5641 43.2934 37.3412 43.0629 36.8358C42.8323 36.3303 43.0552 35.7337 43.5606 35.5032C44.066 35.2726 44.6627 35.4955 44.8932 36.0009Z" fill="#EEBE14"/>
<path d="M46.9506 37.4904C47.1111 37.8424 46.9559 38.258 46.6039 38.4185C46.2519 38.5791 45.8364 38.4239 45.6758 38.0719C45.5153 37.7199 45.6705 37.3044 46.0225 37.1438C46.3745 36.9832 46.79 37.1384 46.9506 37.4904Z" fill="#EEBE14"/>
<path d="M46.6781 34.4168C46.8387 34.7688 46.6835 35.1843 46.3315 35.3449C45.9795 35.5055 45.5639 35.3503 45.4034 34.9983C45.2428 34.6463 45.398 34.2307 45.75 34.0702C46.102 33.9096 46.5175 34.0648 46.6781 34.4168Z" fill="#EEBE14"/>
<path d="M49.8778 33.7273C50.0383 34.0793 49.8831 34.4948 49.5311 34.6553C49.1791 34.8159 48.7636 34.6607 48.6031 34.3087C48.4425 33.9567 48.5977 33.5412 48.9497 33.3806C49.3017 33.2201 49.7172 33.3753 49.8778 33.7273Z" fill="#EEBE14"/>
<path d="M50.2911 29.3534C50.4517 29.7054 50.2965 30.1209 49.9445 30.2814C49.5925 30.442 49.177 30.2868 49.0164 29.9348C48.8559 29.5828 49.0111 29.1673 49.3631 29.0067C49.7151 28.8462 50.1306 29.0014 50.2911 29.3534Z" fill="#EEBE14"/>
<path d="M48.123 32.2177C48.2836 32.5697 48.1284 32.9852 47.7764 33.1458C47.4244 33.3064 47.0089 33.1512 46.8483 32.7992C46.6877 32.4472 46.8429 32.0316 47.1949 31.8711C47.5469 31.7105 47.9625 31.8657 48.123 32.2177Z" fill="#EEBE14"/>
<path d="M48.6958 39.3599C48.8564 39.7119 48.7012 40.1275 48.3492 40.288C47.9972 40.4486 47.5817 40.2934 47.4211 39.9414C47.2606 39.5894 47.4158 39.1739 47.7678 39.0133C48.1198 38.8527 48.5353 39.0079 48.6958 39.3599Z" fill="#EEBE14"/>
<path d="M45.5096 43.4939C45.6579 43.8192 45.5145 44.2032 45.1892 44.3516C44.8639 44.5 44.4799 44.3566 44.3315 44.0312C44.1831 43.7059 44.3265 43.3219 44.6518 43.1735C44.9772 43.0251 45.3612 43.1686 45.5096 43.4939Z" fill="#EEBE14"/>
<path d="M47.0335 41.7362C47.1243 41.9353 47.0365 42.1702 46.8375 42.261C46.6384 42.3518 46.4034 42.2641 46.3126 42.065C46.2219 41.866 46.3096 41.631 46.5087 41.5402C46.7077 41.4494 46.9427 41.5372 47.0335 41.7362Z" fill="#EEBE14"/>
<path d="M44.2335 38.4932C44.357 38.764 44.2376 39.0836 43.9669 39.2071C43.6961 39.3306 43.3765 39.2112 43.253 38.9405C43.1294 38.6697 43.2488 38.3501 43.5196 38.2266C43.7904 38.1031 44.11 38.2224 44.2335 38.4932Z" fill="#EEBE14"/>
<path d="M48.3312 29.9905C48.4547 30.2613 48.3353 30.5809 48.0645 30.7044C47.7938 30.8279 47.4741 30.7086 47.3506 30.4378C47.2271 30.167 47.3465 29.8474 47.6173 29.7239C47.8881 29.6004 48.2077 29.7198 48.3312 29.9905Z" fill="#EEBE14"/>
<path d="M49.9483 31.9776C50.0718 32.2484 49.9524 32.568 49.6817 32.6915C49.4109 32.815 49.0913 32.6956 48.9678 32.4248C48.8443 32.1541 48.9636 31.8344 49.2344 31.7109C49.5052 31.5874 49.8248 31.7068 49.9483 31.9776Z" fill="#EEBE14"/>
<path d="M43.5429 42.3026C43.6664 42.5734 43.547 42.893 43.2763 43.0165C43.0055 43.14 42.6859 43.0206 42.5624 42.7499C42.4389 42.4791 42.5582 42.1595 42.829 42.036C43.0998 41.9125 43.4194 42.0318 43.5429 42.3026Z" fill="#EEBE14"/>
<path d="M43.2378 45.4427C43.3613 45.7135 43.242 46.0331 42.9712 46.1566C42.7004 46.2801 42.3808 46.1608 42.2573 45.89C42.1338 45.6192 42.2532 45.2996 42.5239 45.1761C42.7947 45.0526 43.1143 45.172 43.2378 45.4427Z" fill="#EEBE14"/>
<path fill-rule="evenodd" clip-rule="evenodd" d="M30.3151 21.2768C32.2583 20.5722 34.3821 20.6963 36.128 21.0698C37.8238 21.4326 39.2592 21.96 40.4923 22.7879C41.7457 23.6295 42.6133 24.6629 43.3288 25.7678C44.1793 27.0813 43.804 28.8356 42.4905 29.6861C41.1771 30.5366 39.4228 30.1613 38.5723 28.8479C38.1307 28.166 37.7626 27.7806 37.3336 27.4926C36.8843 27.1909 36.1905 26.8781 34.9425 26.6111C33.7447 26.3548 32.8065 26.4011 32.2467 26.6041C32 26.6935 31.8628 26.7989 31.7752 26.8977C31.6908 26.9928 31.5601 27.185 31.4736 27.5893C31.3871 27.9936 31.4278 28.2224 31.4658 28.3437C31.5054 28.4697 31.5874 28.6221 31.7759 28.8046C32.2037 29.2189 33.0408 29.6449 34.2386 29.9012C35.9846 30.2747 37.9732 31.0304 39.4581 32.4684C41.089 34.0478 41.9259 36.2923 41.3595 38.9399C40.7931 41.5874 39.1111 43.293 36.9767 44.0669C35.0335 44.7715 32.9097 44.6474 31.1638 44.2739C27.5235 43.4951 25.0665 41.5316 23.8767 39.4335C23.1048 38.0724 23.5824 36.3431 24.9436 35.5712C26.3047 34.7993 28.0339 35.277 28.8059 36.6381C29.1062 37.1678 30.102 38.2518 32.3493 38.7326C33.5472 38.9889 34.4853 38.9426 35.0451 38.7396C35.2918 38.6502 35.429 38.5447 35.5166 38.4459C35.601 38.3509 35.7317 38.1586 35.8182 37.7544C35.9047 37.3501 35.864 37.1212 35.826 37C35.7864 36.8739 35.7044 36.7216 35.5159 36.5391C35.0881 36.1248 34.251 35.6987 33.0532 35.4425C31.3072 35.069 29.3186 34.3133 27.8337 32.8753C26.2028 31.2959 25.3659 29.0514 25.9323 26.4038C26.4987 23.7562 28.1807 22.0506 30.3151 21.2768Z" fill="#C37808"/>
<path fill-rule="evenodd" clip-rule="evenodd" d="M37.0727 16.6541C38.6029 16.9814 39.5779 18.4873 39.2506 20.0175L38.3615 24.1734C38.0341 25.7036 36.5283 26.6787 34.9981 26.3513C33.4679 26.024 32.4928 24.5181 32.8202 22.9879L33.7093 18.832C34.0367 17.3018 35.5425 16.3267 37.0727 16.6541Z" fill="#C37808"/>
<path fill-rule="evenodd" clip-rule="evenodd" d="M32.3493 38.7326C33.8795 39.0599 34.8545 40.5658 34.5272 42.096L33.6381 46.2519C33.3107 47.7821 31.8049 48.7572 30.2747 48.4298C28.7445 48.1024 27.7694 46.5966 28.0968 45.0664L28.9859 40.9105C29.3133 39.3803 30.8191 38.4052 32.3493 38.7326Z" fill="#C37808"/>
<path fill-rule="evenodd" clip-rule="evenodd" d="M30.9187 22.9415C32.4296 22.3937 34.1829 22.4646 35.7575 22.8014C37.3134 23.1343 38.517 23.5947 39.5052 24.2581C40.501 24.9267 41.2125 25.7576 41.8424 26.7303C42.1613 27.2229 42.0206 27.8808 41.528 28.1997C41.0355 28.5186 40.3776 28.3779 40.0587 27.8853C39.5315 27.0713 39.0073 26.4834 38.3207 26.0224C37.6264 25.5563 36.7009 25.1763 35.313 24.8794C33.9438 24.5865 32.6352 24.5795 31.6431 24.9393C30.7226 25.273 30.0167 25.9348 29.742 27.2188C29.4673 28.5028 29.8406 29.3956 30.544 30.0767C31.3021 30.8109 32.499 31.3399 33.8682 31.6328C35.4428 31.9697 37.0716 32.6224 38.2261 33.7405C39.4354 34.9116 40.0616 36.5416 39.6278 38.5694C39.194 40.5972 37.9557 41.8283 36.3731 42.4021C34.8622 42.95 33.1089 42.8791 31.5343 42.5422C28.3293 41.8566 26.3289 40.1679 25.4171 38.56C25.1276 38.0495 25.3067 37.4011 25.8171 37.1116C26.3276 36.8221 26.976 37.0012 27.2655 37.5117C27.8438 38.5315 29.2962 39.8903 31.9788 40.4643C33.348 40.7572 34.6566 40.7641 35.6487 40.4044C36.5692 40.0707 37.2751 39.4088 37.5498 38.1248C37.8245 36.8408 37.4512 35.9481 36.7478 35.267C35.9897 34.5328 34.7928 34.0037 33.4236 33.7108C31.849 33.3739 30.2202 32.7213 29.0657 31.6032C27.8564 30.4321 27.2302 28.802 27.664 26.7743C28.0978 24.7465 29.3361 23.5154 30.9187 22.9415Z" fill="#FFB423"/>
<path fill-rule="evenodd" clip-rule="evenodd" d="M36.7022 18.3857C37.276 18.5085 37.6417 19.0732 37.5189 19.647L36.6298 23.803C36.5071 24.3768 35.9424 24.7424 35.3686 24.6197C34.7947 24.4969 34.4291 23.9322 34.5519 23.3584L35.441 19.2024C35.5637 18.6286 36.1284 18.263 36.7022 18.3857Z" fill="#FFB423"/>
<path fill-rule="evenodd" clip-rule="evenodd" d="M31.9788 40.4642C32.5526 40.587 32.9183 41.1517 32.7955 41.7255L31.9064 45.8814C31.7836 46.4553 31.219 46.8209 30.6451 46.6982C30.0713 46.5754 29.7057 46.0107 29.8284 45.4369L30.7175 41.2809C30.8403 40.7071 31.405 40.3415 31.9788 40.4642Z" fill="#FFB423"/>
<path fill-rule="evenodd" clip-rule="evenodd" d="M13.84 25.8093C13.4736 25.6724 13.2875 25.2643 13.4245 24.8978C15.8694 18.3549 21.3448 13.2912 28.1449 11.4144C28.522 11.3103 28.9121 11.5316 29.0162 11.9087C29.1203 12.2858 28.8989 12.6759 28.5218 12.78C22.1628 14.5351 17.0387 19.273 14.7515 25.3937C14.6146 25.7602 14.2065 25.9462 13.84 25.8093Z" fill="#FFCF72"/>
<path fill-rule="evenodd" clip-rule="evenodd" d="M50.9404 43.3178C51.2712 43.5267 51.3699 43.9642 51.161 44.2949C49.5041 46.9179 47.3071 49.1654 44.7261 50.8815C44.4003 51.0981 43.9607 51.0096 43.7441 50.6838C43.5275 50.358 43.616 49.9184 43.9417 49.7018C46.3569 48.096 48.4129 45.9926 49.9633 43.5383C50.1722 43.2076 50.6097 43.1088 50.9404 43.3178Z" fill="#FFCF72"/>
<path fill-rule="evenodd" clip-rule="evenodd" d="M21.643 16.1727C21.6428 16.1727 21.6431 16.1726 21.643 16.1727L21.2501 15.5833C21.643 16.1727 21.6429 16.1727 21.643 16.1727L21.6404 16.1744L21.6261 16.1841C21.6127 16.1933 21.5917 16.2078 21.564 16.2274C21.5084 16.2665 21.4256 16.326 21.3209 16.4045C21.1114 16.5616 20.8156 16.794 20.4769 17.0903C19.7956 17.6865 18.9593 18.5255 18.2978 19.5179C18.0808 19.8434 17.641 19.9313 17.3155 19.7143C16.99 19.4973 16.902 19.0575 17.119 18.732C17.8741 17.5994 18.8087 16.6676 19.5441 16.0242C19.9137 15.7007 20.2377 15.4461 20.4709 15.2712C20.5876 15.1836 20.6819 15.1159 20.748 15.0693C20.7811 15.0459 20.8072 15.0279 20.8257 15.0153L20.8474 15.0005L20.8538 14.9961L20.8559 14.9948L20.8566 14.9943C20.8567 14.9942 20.8572 14.9939 21.2501 15.5833L20.8566 14.9943C21.1821 14.7773 21.6224 14.8649 21.8394 15.1904C22.0563 15.5157 21.9681 15.9556 21.643 16.1727Z" fill="#FFE9AF"/>
<path fill-rule="evenodd" clip-rule="evenodd" d="M24.4763 19.7143C24.4762 19.7144 24.4764 19.7142 24.4763 19.7143L24.0834 19.125C24.4763 19.7143 24.4762 19.7144 24.4763 19.7143L24.4738 19.7161L24.4594 19.7258C24.446 19.735 24.4251 19.7495 24.3973 19.769C24.3417 19.8082 24.2589 19.8677 24.1542 19.9462C23.9447 20.1033 23.6489 20.3356 23.3102 20.632C22.6289 21.2282 21.7926 22.0672 21.1311 23.0595C20.9141 23.385 20.4743 23.473 20.1488 23.256C19.8233 23.039 19.7354 22.5992 19.9524 22.2737C20.7075 21.1411 21.642 20.2093 22.3774 19.5659C22.747 19.2424 23.071 18.9878 23.3042 18.8129C23.4209 18.7253 23.5152 18.6576 23.5813 18.6109C23.6144 18.5876 23.6406 18.5696 23.659 18.557L23.6807 18.5421L23.6871 18.5378L23.6892 18.5365L23.6899 18.536C23.6901 18.5359 23.6905 18.5356 24.0834 19.125L23.6899 18.536C24.0154 18.319 24.4558 18.4066 24.6728 18.7321C24.8897 19.0574 24.8014 19.4972 24.4763 19.7143Z" fill="white"/>
</svg>
